<?xml version="1.0" encoding="utf-8"?>
<!-- Generator: Adobe Illustrator 23.0.1, SVG Export Plug-In . SVG Version: 6.00 Build 0)  -->
<svg version="1.1" id="Layer_1" xmlns="http://www.w3.org/2000/svg" xmlns:xlink="http://www.w3.org/1999/xlink" x="0px" y="0px"
	 width="90px" height="90px" viewBox="0 0 90 90" style="enable-background:new 0 0 90 90;" xml:space="preserve">
<style type="text/css">
	.st0{fill:#4EF1AE;}
	.st1{fill:#FFFFFF;}
</style>
<title>Artboard 3</title>
<path class="st0" d="M18.5,47.3c-5.7,0-10.2-4.6-10.2-10.3h2c0,4.6,3.7,8.2,8.2,8.3c0.5,0,1.1-0.1,1.6-0.2c0.5-0.1,0.9-0.2,1.4-0.4
	c0.9-3.3,2.7-6.1,5.3-8.3v-0.3h2l0.4,1l-0.8,0.6c-2.6,2-4.4,4.8-5.1,7.9l-0.1,0.5l-0.4,0.2c-0.7,0.3-1.5,0.6-2.3,0.7
	C19.8,47.2,19.2,47.2,18.5,47.3z"/>
<path class="st0" d="M71.5,36.7c-1.2,0-2.4-0.2-3.5-0.7l-0.6-0.2l-0.1-0.6c-0.4-3.2-1.9-6.1-4.3-8.2l-0.3-0.4l-0.3-0.3l1.3-1.5
	l0.4,0.4l0.3,0.3c2.5,2.3,4.2,5.4,4.8,8.8c4.4,1.3,8.9-1.3,10.2-5.7c0.2-0.7,0.3-1.5,0.3-2.3h2C81.8,32.1,77.2,36.6,71.5,36.7z"/>
<path class="st0" d="M36.5,24L36.5,24c-6.1-0.1-11.1-5.1-11.2-11.2c0-6.2,5-11.1,11.2-11.1c6.2,0,11.1,5,11.1,11.2
	C47.6,19,42.6,24,36.5,24L36.5,24z M36.5,3.7c-5,0-9.1,4.1-9.2,9.1c0,5.1,4.1,9.1,9.2,9.2c5.1,0,9.1-4.1,9.1-9.2
	C45.6,7.8,41.5,3.7,36.5,3.7L36.5,3.7z"/>
<path class="st0" d="M74.8,66v-3.1c0-5.7-3.1-11-8.1-13.9c-0.8-0.5-1.6-0.9-2.5-1.2l-1.1-0.4l0.7-1l0.3-0.4c0.7-0.9,2.8-3.5,3.1-6.1
	l0.1-0.9H76c7.2,0,13.1,5.9,13.1,13.1v10.6l-1,0.5c-1.1,0.5-2.3,0.9-3.4,1.2c-2.9,0.8-5.8,1.3-8.8,1.5L74.8,66z M66.2,46.5
	c0.6,0.3,1.2,0.6,1.5,0.8c5.6,3.2,9.1,9.2,9.1,15.6v0.9c2.5-0.2,4.9-0.6,7.3-1.3c1-0.3,2-0.6,3-1v-9.4C87,46,82.1,41,76,41h-7
	C68.4,43,67.5,44.8,66.2,46.5z"/>
<path class="st0" d="M38,88.3c-6.1,0-12.2-1-18-2.8l-0.7-0.2V74.4c0-7.3,5.9-13.1,13.2-13.2h8.9c3.5,0,6.9,1.4,9.3,3.9
	c2.4,2.5,3.8,5.8,3.7,9.3V85l-0.6,0.4C53.1,85.7,47.4,88.3,38,88.3z M21.3,83.8c5.4,1.7,11,2.5,16.7,2.5c4.9,0.1,9.8-0.8,14.4-2.6
	v-9.4c0.1-2.9-1.1-5.8-3.2-7.9c-2.1-2.1-4.9-3.3-7.9-3.3h-8.9c-6.2,0-11.1,5-11.1,11.2V83.8z"/>
<path class="st0" d="M37,59c-5.7,0-10.3-4.6-10.3-10.2c0,0,0,0,0,0h2c0,4.6,3.7,8.3,8.3,8.3s8.3-3.7,8.3-8.3h2
	C47.2,54.4,42.6,59,37,59z"/>
<path class="st1" d="M47.8,46.9c-0.3-3-1.8-5.8-4.2-7.6c0-0.6-0.3-1.1-0.7-1.5c-0.5-0.4-1.1-0.7-1.7-0.7h-0.6
	c-0.4-0.9-1.2-1.4-2.2-1.4h-2.8c-0.9,0-1.8,0.5-2.2,1.4h-0.6c-1.3,0-2.3,1-2.4,2.3c-2.4,1.8-3.9,4.6-4.2,7.6h0.5v2h20.6v-2H47.8z
	 M31.3,45c0.6,0,1-0.4,1-1c0,0,0,0,0,0v-4.5c0-0.2,0.2-0.4,0.4-0.4h0.4v3.5c0,0.6,0.4,1,1,1l0,0c0.6,0,1-0.4,1-1v-4.5
	c0-0.2,0.2-0.4,0.4-0.4h2.8c0.2,0,0.4,0.2,0.4,0.4v0v4.5c0,0.6,0.4,1,1,1l0,0c0.6,0,1-0.4,1-1v-3.5h0.4c0.2,0,0.4,0.2,0.4,0.4V44
	c0,0.6,0.4,1,1,1l0,0c0.6,0,1-0.4,1-1v-2c1.2,1.4,2,3.1,2.2,4.8H28.2c0.2-1.8,1-3.5,2.2-4.8v2C30.3,44.6,30.8,45,31.3,45z"/>
<path class="st1" d="M29.4,35.1c-0.3-3-1.8-5.7-4.2-7.6c0-0.6-0.3-1.1-0.7-1.5c-0.5-0.5-1.1-0.7-1.7-0.7h-0.6
	c-0.4-0.9-1.2-1.4-2.1-1.4h-2.9c-0.9,0-1.8,0.6-2.1,1.4h-0.6c-1.3,0-2.3,1-2.4,2.3c-2.4,1.8-3.9,4.6-4.2,7.6h0.5v2h20.6v-2H29.4z
	 M12.9,33.2c0.6,0,1-0.4,1-1v-4.5c0-0.2,0.2-0.4,0.4-0.4h0.4v3.5c0,0.6,0.4,1,1,1l0,0c0.6,0,1-0.4,1-1v-4.5c0-0.2,0.2-0.4,0.4-0.4
	H20c0.2,0,0.4,0.2,0.4,0.4v4.5c0,0.6,0.4,1,1,1l0,0c0.6,0,1-0.4,1-1v-3.5h0.4c0.2,0,0.4,0.2,0.4,0.4v4.5c0,0.6,0.4,1,1,1l0,0
	c0.6,0,1-0.4,1-1v-1.9c1.2,1.4,2,3.1,2.2,4.8H9.8c0.2-1.8,1-3.5,2.2-4.9v1.9C11.9,32.7,12.4,33.2,12.9,33.2z"/>
<path class="st1" d="M82.3,24.5c-0.3-3-1.8-5.7-4.2-7.6c0-0.6-0.3-1.1-0.7-1.6c-0.5-0.5-1.1-0.7-1.7-0.7h-0.6
	c-0.4-0.9-1.2-1.4-2.2-1.4h-2.8c-0.9,0-1.8,0.5-2.2,1.4h-0.6c-1.3,0-2.3,1-2.4,2.3c-2.3,1.8-3.8,4.5-4.2,7.4c0,0.1,0,0.1,0,0.2h0.5
	v2h20.6v-2H82.3z M65.9,22.6c0.6,0,1-0.4,1-1v-4.5c0-0.2,0.2-0.4,0.4-0.4h0.4v3.5c0,0.6,0.4,1,1,1l0,0c0.6,0,1-0.4,1-1v-4.5
	c0-0.2,0.2-0.4,0.4-0.4l0,0h2.8c0.2,0,0.4,0.2,0.4,0.4v0v4.5c0,0.6,0.4,1,1,1l0,0c0.6,0,1-0.4,1-1v-3.5h0.4c0.2,0,0.4,0.2,0.4,0.4
	v4.5c0,0.6,0.4,1,1,1l0,0c0.6,0,1-0.4,1-1v-1.9c1.2,1.4,2,3.1,2.2,4.9H62.7c0.2-1.8,1-3.5,2.2-4.9v1.9
	C64.9,22.1,65.3,22.6,65.9,22.6z"/>
<path class="st0" d="M57.5,76.4v-3c0-6.2-3.6-11.8-9.2-14.5l-1.1-0.5l0.8-1c1.3-1.7,2.3-3.7,2.7-5.8c0.1-0.4,0.2-0.8,0.2-1.3
	l0.1-0.9h7.7c0.6,0,1.2,0,1.8,0.1c6.5,0.9,11.3,6.5,11.3,13v10.6l-1,0.5c-1.1,0.5-2.3,0.9-3.4,1.2c-2.9,0.8-5.8,1.3-8.8,1.5
	L57.5,76.4z M50.3,57.7c5.7,3.2,9.3,9.2,9.2,15.7v0.9c2.5-0.2,4.9-0.6,7.3-1.3c1-0.3,2-0.6,3-1v-9.4c0-5.5-4.1-10.2-9.6-11
	c-0.5-0.1-1-0.1-1.6-0.1h-5.9c0,0.2-0.1,0.4-0.1,0.6C52.2,54.1,51.4,56,50.3,57.7z"/>
<path class="st0" d="M53.9,47.2h-0.6c-0.6,0-1.3-0.2-1.9-0.3l-0.6-0.2l-0.1-0.6c-0.7-3.8-3.1-7.2-6.4-9.3l-0.5-0.3l0.1-0.6
	c0.3-2.9,1.8-5.5,4.2-7.2c1.6-1.2,3.5-1.9,5.5-2c5.7-0.3,10.5,4,10.8,9.7c0.3,5.7-4,10.5-9.7,10.8c-0.1,0-0.2,0-0.3,0L53.9,47.2z
	 M52.5,45.1c0.3,0.1,0.6,0.1,1,0.1c0.3,0,0.5,0,0.8,0c4.5-0.3,8-4.2,7.7-8.8c-0.3-4.4-4-7.7-8.3-7.7c-1.6,0.1-3.1,0.7-4.4,1.6
	c-1.7,1.2-2.9,3.1-3.3,5.2C49.2,37.8,51.6,41.2,52.5,45.1z"/>
<path class="st0" d="M16.2,76.6l-1.1-0.1c-4.6-0.4-9.1-1.3-13.5-2.7l-0.7-0.2V62.7c0-7.3,5.9-13.1,13.2-13.2H23l0.1,0.9
	c0,0.3,0.1,0.6,0.1,0.9c0.4,2.2,1.3,4.2,2.7,6l0.8,1l-1.1,0.5c-5.6,2.7-9.2,8.4-9.3,14.6V76.6z M2.9,72.1c3.7,1.1,7.5,1.9,11.3,2.3
	v-0.9c0.1-6.6,3.7-12.6,9.4-15.9c-1.2-1.8-2-3.8-2.4-5.9c0-0.1,0-0.1,0-0.2h-7.2c-6.2,0-11.1,5-11.1,11.2V72.1z"/>
<path class="st0" d="M32.3,34L32,33.1c-0.5-1.8-1.5-3.5-2.7-5l-1.1-1.3l1.6-0.3c0.9-0.2,1.7-0.3,2.6-0.3h8.9c0.5,0,0.9,0,1.4,0.1
	l1.9,0.2l-1.3,1.5c-1.3,1.5-2.2,3.2-2.8,5l-0.3,0.8l-0.9-0.2c-2.1-0.4-4.2-0.3-6.3,0.3L32.3,34z M31.9,28.2c0.7,1.1,1.3,2.2,1.7,3.5
	c1.8-0.3,3.6-0.4,5.4-0.2c0.4-1.2,1-2.2,1.7-3.3L31.9,28.2L31.9,28.2z"/>
<path class="st1" d="M7.7,35.1h21.7c0.6,0,1,0.4,1,1l0,0c0,0.6-0.4,1-1,1H7.7c-0.6,0-1-0.4-1-1l0,0C6.7,35.5,7.1,35.1,7.7,35.1z"/>
<path class="st1" d="M60.7,24.5h21.7c0.6,0,1,0.4,1,1l0,0c0,0.6-0.4,1-1,1H60.7c-0.6,0-1-0.4-1-1l0,0C59.7,24.9,60.1,24.5,60.7,24.5
	z"/>
<path class="st1" d="M26.1,46.9h21.7c0.6,0,1,0.4,1,1l0,0c0,0.6-0.4,1-1,1H26.1c-0.6,0-1-0.4-1-1l0,0C25.1,47.3,25.5,46.9,26.1,46.9
	z"/>
</svg>
