<svg xmlns="http://www.w3.org/2000/svg" xmlns:xlink="http://www.w3.org/1999/xlink" id="Layer_1" x="0px" y="0px" width="90px" height="90px" viewBox="0 0 90 90" style="enable-background:new 0 0 90 90;" xml:space="preserve">
<style type="text/css">
	.st0{fill:#4EF1AE;}
	.st1{fill:#FFFFFF;}
</style>
<title>Artboard 3 copy</title>
<g>
	<path class="st0" d="M22.8,37.8c-0.6,0-1-0.4-1-1c0-0.3,0.1-0.5,0.3-0.7c0.2-0.2,0.4-0.3,0.7-0.3c6-0.1,12.1-0.6,18-1.5H41   c1.5,0.1,2.9,0.5,4.2,1.3c0.5,0.3-1.1,1.7-1.2,1.5c-0.9-0.5-1.8-0.8-2.8-0.9C35.1,37.2,29,37.7,22.8,37.8L22.8,37.8z"></path>
	<path class="st0" d="M67.9,67.1c-1,0-2-0.3-2.8-0.9L64.8,66l-0.1-0.1L50.2,55.4c-0.2-0.2-0.4-0.4-0.4-0.7c-0.1-0.5,0.2-1.1,0.8-1.2   c0.1,0,0.2,0,0.2,0c0.2,0,0.4,0.1,0.6,0.2l1,0.7L66,64.2l0.1,0.1l0.3,0.2c0.5,0.3,1,0.5,1.6,0.5c1.5,0,2.7-1.2,2.7-2.7   c0-0.3,0-0.5-0.1-0.8c-0.2-0.5-0.5-1-0.9-1.3L50.1,44.3H50c-2.5,1.4-5.3,2.2-8.2,2.3c-2.4,0-4.8-0.6-6.8-1.9c-0.6-0.4-1-1-1.1-1.7   c-0.2-0.7,0-1.4,0.4-2c0.2-0.4,0.6-0.7,1-0.9l11.1-5.9c0.8-0.4,1.8-0.7,2.7-0.7c0.6,0,1.2,0.1,1.8,0.3l6.6,2.1   c0.9,0.3,1.8,0.4,2.7,0.4c1.1,0,2.3-0.2,3.3-0.6l2.9-1.2c0.1-0.1,0.3-0.1,0.4-0.1c0.6,0,1,1.3,0.9,1.5c-0.1,0.3-0.3,0.5-0.6,0.5   l-2.9,1.3c-2.4,1-5,1.1-7.5,0.3l-6.5-2.2c-0.4-0.1-0.7-0.2-1.1-0.2c-0.6,0-1.2,0.1-1.8,0.4l-11.1,5.9c-0.2,0.1-0.3,0.3-0.3,0.5   s0.1,0.4,0.3,0.5c1.7,1.1,3.6,1.6,5.7,1.6c2.8-0.1,5.5-0.9,7.9-2.4c0.4-0.2,0.8-0.2,1.2,0.1l20,16.3c0.8,0.6,1.3,1.4,1.6,2.4   c0.7,2.6-0.7,5.2-3.3,6C68.7,67,68.3,67.1,67.9,67.1z"></path>
	<path class="st0" d="M62.8,72.8c-1,0-2-0.3-2.8-0.9l-13.3-9.4c-0.2-0.2-0.4-0.4-0.4-0.7s0-0.5,0.2-0.8s0.5-0.4,0.8-0.4   c0.2,0,0.4,0.1,0.6,0.2l13.3,9.4c1.3,0.8,3,0.3,3.8-1c0.7-1.1,0.4-2.6-0.6-3.5l-13.3-9.6c-0.4-0.3-0.5-1-0.2-1.4l0,0   c0.2-0.3,0.5-0.4,0.8-0.4c0.2,0,0.4,0.1,0.5,0.2L65.5,64c2.2,1.6,2.6,4.6,1.1,6.8C65.7,72,64.3,72.8,62.8,72.8   C62.8,72.8,62.8,72.8,62.8,72.8z"></path>
	<path class="st0" d="M60.9,75.7c-0.7,1-1.8,1.7-3,1.9c-0.3,0.1-0.6,0.1-0.9,0.1c-0.8,0-1.6-0.2-2.3-0.6l-0.3-0.2l-2.9-2L43,69l0,0   c-0.4-0.3-0.5-0.9-0.2-1.4s0.9-0.6,1.4-0.3c0,0,0,0,0.1,0l8.5,5.9l2.9,2c0.4,0.3,1,0.5,1.5,0.5c1.4,0,2.6-1.2,2.6-2.6   c0-0.9-0.4-1.7-1.1-2.1l-11.9-8.5c-0.5-0.3-0.6-0.9-0.3-1.4l0,0c0.2-0.3,0.5-0.5,0.8-0.5c0.2,0,0.4,0.1,0.6,0.2l11.9,8.4   C61.8,70.7,62.3,73.6,60.9,75.7z"></path>
	<path class="st0" d="M54.7,77.1c0,0.9-0.3,1.9-0.8,2.6c-0.9,1.3-2.3,2-3.9,2c-0.8,0-1.6-0.2-2.3-0.6L41,77.3   c-0.2-0.1-0.4-0.4-0.5-0.6c-0.1-0.3,0-0.6,0.1-0.8c0.2-0.3,0.5-0.5,0.9-0.5c0.2,0,0.3,0,0.5,0.1l6.6,3.8c0.4,0.2,0.9,0.4,1.4,0.4   c0.9,0,1.8-0.5,2.3-1.3c0.7-1.2,0.4-2.7-0.8-3.5L43,69l0,0c-0.4-0.3-0.5-0.9-0.2-1.4s0.9-0.6,1.4-0.3c0,0,0,0,0.1,0l8.5,5.9   c1,0.7,1.8,1.8,2,3C54.7,76.5,54.7,76.8,54.7,77.1z"></path>
	<path class="st0" d="M36.1,81c-2.6,0-4.7-2.1-4.8-4.7c0-1.4,0.6-2.7,1.6-3.6l3.3-2.9c0.9-0.8,2-1.2,3.1-1.2c2.6,0,4.7,2.1,4.8,4.7   c0,1.4-0.6,2.7-1.6,3.6l-3.3,2.9C38.3,80.6,37.2,81,36.1,81L36.1,81z M39.3,70.7c-0.7,0-1.3,0.2-1.8,0.7l-3.3,2.9   c-1.1,1-1.2,2.7-0.2,3.8c0.5,0.6,1.2,0.9,2,0.9l0,0c0.7,0,1.3-0.2,1.8-0.7l3.3-2.9c1.1-1,1.2-2.7,0.2-3.8   C40.8,71,40.1,70.7,39.3,70.7L39.3,70.7z"></path>
	<path class="st0" d="M28.6,77.7h-0.3c-2.6-0.2-4.6-2.4-4.5-5.1c0.1-1.3,0.7-2.4,1.6-3.3l5.5-4.8c2.1-1.7,5.1-1.3,6.7,0.7   c1.6,1.9,1.4,4.7-0.4,6.5l-5.5,4.8C30.9,77.3,29.8,77.7,28.6,77.7L28.6,77.7z M34,65.4c-0.6,0-1.3,0.2-1.8,0.7l-5.5,4.8   c-0.5,0.5-0.9,1.1-0.9,1.8c-0.1,1.5,1,2.8,2.5,2.9h0.2c0.7,0,1.3-0.2,1.8-0.7l5.5-4.8c1.1-1,1.2-2.7,0.2-3.8   c-0.5-0.5-1.1-0.9-1.8-0.9L34,65.4z"></path>
	<path class="st0" d="M22.4,73.1h-0.3c-1.3-0.1-2.4-0.7-3.3-1.6l-0.1-0.2c-1.7-2-1.5-5,0.4-6.7l6.4-5.6c2-1.7,5-1.5,6.7,0.4l0,0   l0.1,0.2c1.7,2,1.5,5-0.4,6.7l-6.4,5.6C24.7,72.7,23.6,73.1,22.4,73.1L22.4,73.1z M28.6,60c-0.6,0-1.3,0.2-1.8,0.7l-6.4,5.6   c-1.1,1-1.2,2.7-0.3,3.8l0,0l0.1,0.2c1,1.1,2.7,1.2,3.8,0.3l6.4-5.6c1.1-1,1.2-2.7,0.3-3.8L30.6,61c-0.5-0.5-1.1-0.9-1.9-0.9   L28.6,60L28.6,60z"></path>
	<path class="st0" d="M17,67.7h-0.3c-2.6-0.2-4.6-2.4-4.5-5c0.1-1.3,0.7-2.5,1.6-3.3l4-3.5c2-1.7,5-1.5,6.7,0.4l0,0   c1.8,2,1.6,5-0.4,6.7l0,0l-4,3.5C19.3,67.3,18.2,67.7,17,67.7L17,67.7z M21,56.7c-0.7,0-1.3,0.2-1.8,0.7l-4,3.5   c-1.1,1-1.2,2.7-0.2,3.9c0.5,0.6,1.3,0.9,2,0.9c0.6,0,1.3-0.2,1.7-0.6l4-3.5c1.1-1,1.2-2.7,0.3-3.8l0,0c-0.5-0.6-1.2-0.9-1.9-1   L21,56.7z"></path>
	<path class="st0" d="M14.8,60.9c-0.2,0-0.4-0.1-0.6-0.2L10,57.5c-0.4-0.3-0.5-0.9-0.2-1.4l0,0c0.2-0.3,0.5-0.4,0.8-0.4   c0.2,0,0.4,0.1,0.6,0.2l4.2,3.2c0.5,0.3,0.6,0.9,0.3,1.4C15.6,60.7,15.3,60.9,14.8,60.9L14.8,60.9z"></path>
	<path class="st0" d="M71.5,62.2c-0.6,0-1-0.4-1-1c0-0.3,0.1-0.5,0.3-0.7l6.9-6.9c0.2-0.2,0.4-0.3,0.7-0.3c0.3,0,0.4,0.4,0.6,0.6   c0.4,0.4,0.5,0.8,0.1,1.2L72.2,62C72,62.2,71.8,62.3,71.5,62.2z"></path>
	<path class="st1" d="M80.9,59.7c-0.4,0-0.7-0.2-0.9-0.5L65,34.7c-0.3-0.4-0.2-1,0.3-1.4l14.9-11.5c0.2-0.1,0.4-0.2,0.6-0.2   c0.3,0,0.6,0.1,0.8,0.4c0.1,0.1,0.2,0.3,0.2,0.4l7.3,31.9c0.1,0.5-0.1,0.9-0.5,1.1l-7.2,4C81.2,59.6,81.1,59.6,80.9,59.7L80.9,59.7   z M67.2,34.5l14,22.8l5.7-3.2l-6.8-29.6L67.2,34.5z"></path>
	<path class="st1" d="M9.1,60.1c-0.2,0-0.3,0-0.5-0.1l-7.2-4c-0.4-0.2-0.6-0.7-0.5-1.1L8.2,23c0.1-0.5,0.5-0.8,1-0.8   c0.1,0,0.2,0,0.2,0c0.1,0,0.3,0.1,0.4,0.2l14.9,11.5c0.4,0.3,0.5,0.9,0.2,1.4L10,59.6C9.8,59.9,9.5,60.1,9.1,60.1L9.1,60.1z    M3.1,54.5l5.7,3.2l14-22.8l-12.9-10L3.1,54.5z"></path>
	<g>
		<path class="st0" d="M44.6,25.8c-0.6,0-1-0.4-1-1V9.3c0-0.6,0.4-1,1-1s1,0.4,1,1v15.5C45.6,25.4,45.2,25.8,44.6,25.8z"></path>
	</g>
	<g>
		<path class="st0" d="M35.5,27.8c-0.3,0-0.7-0.2-0.9-0.5l-5.7-10c-0.3-0.5-0.1-1.1,0.4-1.4c0.5-0.3,1.1-0.1,1.4,0.4l5.7,10    c0.3,0.5,0.1,1.1-0.4,1.4C35.8,27.8,35.7,27.8,35.5,27.8z"></path>
	</g>
	<g>
		<path class="st0" d="M53.8,27.8c-0.2,0-0.3,0-0.5-0.1c-0.5-0.3-0.6-0.9-0.4-1.4l5.7-10c0.3-0.5,0.9-0.6,1.4-0.4    c0.5,0.3,0.6,0.9,0.4,1.4l-5.7,10C54.4,27.6,54.1,27.8,53.8,27.8z"></path>
	</g>
</g>
</svg>