<svg xmlns="http://www.w3.org/2000/svg" xmlns:xlink="http://www.w3.org/1999/xlink" id="Layer_1" x="0px" y="0px" width="90px" height="90px" viewBox="0 0 90 90" style="enable-background:new 0 0 90 90;" xml:space="preserve">
<style type="text/css">
	.st0{fill:#FFFFFF;}
	.st1{fill:#4EF1AE;}
</style>
<title>Artboard 3</title>
<g>
	<path class="st0" d="M79.2,70.3H61.5V53.7h17.6l0-2H60.5c-0.5,0-1,0.4-1,1v18.7c0,0.6,0.4,1,1,1h18.7L79.2,70.3z"></path>
	<path class="st0" d="M29.5,51.7H10.9l0,0c0,0.6,0,1.2,0,1.9v0h17.5v16.6h-18v0c0,0.7,0,1.4,0,1.9l0,0h19c0.6,0,1-0.5,1-1V52.7   C30.5,52.1,30,51.7,29.5,51.7z"></path>
	<path class="st1" d="M79.2,35c-0.6,0-1.7,0-2.9-0.6c-1.4-0.7-2.6-1.9-3.6-3.7c-2.5-4.5-3.9-13-4.1-25.1c0-0.4-0.2-0.7-0.6-0.9L59,1   c-0.1-0.1-0.3-0.1-0.4-0.1c-0.2,0-0.4,0.1-0.6,0.2c-0.3,0.2-0.4,0.5-0.4,0.8c0,0.1,0,0.2,0,0.3c0,7-5.7,12.6-12.6,12.6   c-7,0-12.6-5.7-12.6-12.6l0-0.3c0-0.3-0.2-0.6-0.5-0.8c-0.2-0.1-0.3-0.2-0.5-0.2c-0.1,0-0.3,0-0.4,0.1l-9,3.7   c-0.4,0.2-0.6,0.5-0.6,0.9C21.2,12.2,20.8,17.7,20,22c-0.7,3.7-1.6,6.6-2.8,8.7c-1,1.8-2.2,3-3.6,3.7C12.4,35,11.4,35,10.8,35   c-0.6,0-1,0.4-1,1v46.8c0,3.5,2.8,6.3,6.3,6.3h57.9c3.5,0,6.3-2.8,6.3-6.3V36C80.2,35.4,79.8,35,79.2,35z M78.2,82.8   c0,2.4-1.9,4.3-4.3,4.3H16.1c-2.4,0-4.3-1.9-4.3-4.3V36.9l1.1-0.2c3.2-0.7,5.6-3.3,7.3-7.9C22,24,23.1,16.9,23.3,7.3l0-1L24.1,6   l6.2-2.6l0.4,1.8c1.4,6.7,7.4,11.6,14.3,11.6s12.9-4.9,14.3-11.6l0.4-1.8L65.8,6l0.8,0.4l0.1,0.9c0.3,9.7,1.3,16.7,3.1,21.6   c1.7,4.5,4.1,7.1,7.2,7.8l1.3,0.2L78.2,82.8z"></path>
</g>
</svg>