<?xml version="1.0" encoding="utf-8"?>
<!-- Generator: Adobe Illustrator 23.0.1, SVG Export Plug-In . SVG Version: 6.00 Build 0)  -->
<svg version="1.1" id="Layer_1" xmlns="http://www.w3.org/2000/svg" xmlns:xlink="http://www.w3.org/1999/xlink" x="0px" y="0px"
	 width="90px" height="90px" viewBox="0 0 90 90" style="enable-background:new 0 0 90 90;" xml:space="preserve">
<style type="text/css">
	.st0{fill:#4EF1AE;}
	.st1{fill:#FFFFFF;}
</style>
<title>Artboard 3 copy 2</title>
<path class="st0" d="M32.7,87.2c-3.7,0-5.2-3.9-6.5-7.4c-0.4-1.2-0.9-2.3-1.5-3.3c-1.6-2.7-4.7-2.9-7.6-3c-0.9,0-1.6-0.1-2.4-0.2
	c-2.1-0.3-4.7-0.8-5.8-2.9s-0.5-5,0.1-7.2l0.1-0.3c0.1-0.3,0.2-0.7,0.3-1.1c0.6-1.6,0.8-3.3,0.6-5c-0.3-1.7-1.8-3-3.2-4.1l-0.4-0.3
	l-0.9-0.8c-1.7-1.3-3.4-2.8-4.3-4.7c-1.1-2.6,0.3-4.9,1.7-6.4c0.8-0.8,1.6-1.5,2.6-2.2c2.4-1.9,4.9-3.8,4.6-6.8
	C10,30.3,9.7,29,9.3,27.7c-1-3.6-2.1-7.6,1-9.8c1.9-1.3,4.3-1.4,6.5-1.4c2.1,0,4.2-0.1,6-1.1c1.5-0.8,2.2-2.5,2.8-4l0.1-0.3
	c0.2-0.5,0.4-1,0.6-1.5C27,7.7,28,6,29.2,4.5c0.9-1,2.1-1.7,3.5-1.7c2.3,0,4.8,1.6,7,3c0.9,0.6,1.9,1.2,2.9,1.7
	c0.8,0.4,1.6,0.6,2.5,0.6c2.2,0,4.3-1.4,6.3-2.7c1.2-0.8,2.5-1.5,3.8-2.1c0.7-0.3,1.4-0.4,2.2-0.4c3.5,0,5.1,3.9,6.5,7.3
	c0.2,0.6,0.4,1.1,0.7,1.6c0.6,1.4,1.4,3.1,2.9,3.8c1.5,0.6,3,0.8,4.6,0.8l0.9,0.1h0.5c2.1,0.1,4.5,0.3,6.3,1.5s2.3,3.3,1.8,6.4
	c-0.2,1-0.4,2-0.7,2.9c-0.5,1.5-0.8,3-0.9,4.6c0,1.6,0.7,3.2,2,4.2c0.6,0.5,1.3,1.1,2,1.7c3.2,2.6,6.9,5.6,4.4,9.8
	c-1.1,1.6-2.5,3-4.1,4.2c-0.5,0.4-1,0.8-1.5,1.2l-0.1,0.1c-1.2,1-2.5,2.2-2.7,3.9c0,1.9,0.3,3.8,0.9,5.5c0.9,3,1.8,6.1-0.3,8.5
	c-1.8,2.2-4.9,2.3-7.8,2.4c-1.6,0-3.1,0.2-4.6,0.5c-2.7,0.8-3.8,3.9-4.8,6.5c-0.3,1-0.7,1.9-1.2,2.8c-1.3,2.5-3,3.7-4.9,3.7
	c-2.3,0-4.2-1.3-6.2-2.6l-1.3-0.8c-1.4-0.9-3-1.9-4.7-1.9h-0.1c-1.7,0-3.3,1.1-4.7,2l-1.4,0.9C36.9,85.9,34.9,87.2,32.7,87.2z
	 M32.3,4.8c-0.5,0-1.1,0.2-1.4,0.7l-0.2,0.2c-0.8,1-1.5,2.1-1.8,3.3c-0.1,0.3-0.2,0.5-0.3,0.7c-0.2,0.4-0.3,0.8-0.5,1.2
	c-0.9,2.4-2,5-4.2,6.3c-1.9,1.1-4.3,1.2-6.5,1.3c-0.8,0-1.6,0.1-2.3,0.2c-1.4,0.1-3.9,0.4-4.7,1.8c-0.5,0.8-0.1,2.5,0.1,3.5V24
	c0.2,0.8,0.4,1.7,0.6,2.5c0.7,2.1,1.1,4.3,1,6.5c-0.3,2.8-2.6,4.6-4.6,6.3l-1.3,1c-1.4,1.2-3.2,2.6-3.4,4.4c-0.2,1.7,1.3,3.1,2.3,4
	c0.6,0.5,1.2,1,1.8,1.6c1.8,1.5,3.7,3,4.6,5.1c1,2.3,0.2,5-0.5,7.5c-0.2,0.7-0.4,1.4-0.5,2c-0.3,1.5-0.9,3.8,0.2,5.1
	c0.9,1,2.7,1.2,4,1.3h0.2c0.7,0.1,1.5,0.1,2.3,0.2c2.2,0.1,4.5,0.2,6.5,1.2c2.3,1.2,3.4,3.9,4.3,6.2l0.6,1.6
	c0.7,1.7,1.5,3.7,3.1,4.6c0.2,0.2,0.5,0.3,0.8,0.3c0.2,0,0.5-0.1,0.7-0.1c0.6-0.1,1.1-0.3,1.6-0.6c1-0.5,1.9-1.1,2.8-1.7
	c1.4-1,2.9-1.8,4.5-2.5c0.8-0.3,1.7-0.5,2.5-0.5c2.5,0,4.8,1.5,6.9,2.8l0.7,0.4c1.4,1.1,3.1,1.8,4.9,2.1h0.1
	c1.1-0.1,2.1-0.7,2.5-1.8c0.7-1.3,1.3-2.6,1.8-4c0.4-1.1,0.8-2.2,1.4-3.2c1.2-2.5,3.7-4.2,6.5-4.4c0.9-0.1,1.8-0.2,2.7-0.2
	c1.8,0,3.6-0.2,5.3-0.8c1.3-0.3,2.1-1.5,2.1-2.8c0-1.6-0.3-3.2-0.9-4.8c-0.2-0.7-0.4-1.3-0.5-1.9c-0.7-3.2-0.7-5.9,1.8-8.4
	c0.8-0.8,1.7-1.5,2.5-2.2c1.5-1,2.7-2.3,3.8-3.7c0.9-1.1,0.9-2.7,0-3.8c-1-1.4-2.3-2.6-3.7-3.5c-0.7-0.5-1.4-1.1-2-1.7
	c-2.5-2.3-3.2-4.8-2.5-8.3c0.2-0.7,0.4-1.5,0.6-2.3c0.7-1.8,1-3.7,0.8-5.7c-0.1-1.2-1-2.2-2.2-2.5c-1.6-0.4-3.3-0.7-4.9-0.6
	c-0.8,0-1.7-0.1-2.5-0.1c-3.3-0.4-5.3-1.6-6.7-4c-0.6-1.1-1.1-2.2-1.5-3.4c-0.5-1.6-1.2-3.1-2.1-4.5c-0.4-0.5-0.9-1-1.5-1.4
	c-0.3-0.2-0.6-0.4-1-0.4c-0.3,0-0.6,0.1-0.9,0.2C55,5.3,53.8,6,52.7,6.8l-0.9,0.6c-2.2,1.4-4.5,2.8-7,2.8c-0.8,0-1.6-0.1-2.3-0.4
	c-1.5-0.6-2.9-1.4-4.2-2.3c-1.2-0.9-2.5-1.6-3.8-2.2c-0.7-0.3-1.4-0.4-2.1-0.4L32.3,4.8z"/>
<path class="st1" d="M39.8,58.3c-0.5,0-0.9-0.5-1.3-0.9c-0.1-0.1-0.2-0.2-0.3-0.3l-8.4-8.4l-0.4-0.3c-0.3-0.2-0.5-0.5-0.7-0.8
	c-0.3-0.3-0.3-0.8-0.2-1.2c0.2-0.3,0.5-0.5,0.9-0.5c0.3,0,0.6,0.1,0.8,0.3c1.1,0.9,2.2,1.9,3.1,3c0.5,0.5,1,1.1,1.5,1.6l4.9,4.9
	l17.9-21.3l0.3-0.4c0.5-0.7,1.3-1.8,2.1-1.8c0.3,0,0.6,0.2,0.7,0.5c0.5,0.8-0.5,1.8-1.2,2.5l-0.4,0.4L42.8,55.3
	c-0.1,0.2-0.3,0.4-0.5,0.7C41.7,56.9,40.7,58.3,39.8,58.3L39.8,58.3z"/>
</svg>
